<?xml version="1.0" encoding="UTF-8"?>
<svg xmlns="http://www.w3.org/2000/svg" viewBox="0 0 192 240" width="192" height="240">
  <defs>
    <style>
      .sdk-badge { fill: #DBEAFE; }
      .sdk-text { fill: #1E40AF; font-family: Arial, sans-serif; font-weight: bold; }
    </style>
  </defs>
  
  <!-- Main Wish Icon (Blue) -->
  <g transform="translate(0, 0)">
    <g transform="translate(0,192) scale(0.1,-0.1)" fill="#3B82F6">
      <path d="M1410 1905 c-9 -11 -9 -38 4 -127 9 -62 13 -114 9 -116 -4 -1 -51
-26 -103 -55 -143 -79 -137 -105 30 -132 61 -10 110 -20 110 -23 0 -23 34
-201 42 -214 11 -23 41 -23 60 0 8 9 34 55 58 102 23 47 44 86 44 87 1 1 52
-5 114 -14 90 -13 114 -13 127 -3 27 23 16 44 -64 124 l-80 79 50 99 c52 104
56 123 27 142 -14 9 -38 0 -121 -41 l-104 -51 -79 79 c-79 80 -101 91 -124 64z
m198 -235 c7 0 35 11 62 25 28 14 50 22 50 18 0 -5 -11 -28 -25 -52 -14 -23
-25 -48 -25 -54 0 -6 21 -32 46 -58 l46 -47 -73 2 -74 1 -30 -55 -29 -55 -9
45 c-17 90 -17 90 -111 105 l-39 6 54 31 c61 35 70 45 64 73 -2 11 -6 40 -10
65 l-6 45 48 -47 c27 -27 54 -48 61 -48z"/>
      <path d="M371 1616 l-51 -94 -94 -53 c-136 -75 -136 -85 -1 -160 l93 -51 49
-90 c26 -49 53 -94 60 -100 26 -21 53 4 103 97 l51 94 94 51 c85 45 95 54 95
79 0 24 -10 33 -92 78 -92 49 -94 51 -138 131 -57 101 -67 112 -95 112 -19 0
-33 -17 -74 -94z m119 -98 c29 -51 45 -67 92 -92 32 -17 58 -34 58 -38 0 -4
-27 -21 -59 -37 -52 -27 -63 -38 -96 -97 l-38 -67 -35 67 c-31 60 -42 71 -94
97 -32 16 -58 33 -58 38 0 4 27 22 59 40 51 27 65 41 93 91 18 33 35 60 38 60
3 0 21 -28 40 -62z"/>
      <path d="M588 802 c-371 -370 -588 -594 -588 -606 0 -26 170 -196 196 -196 24
0 1194 1168 1194 1193 0 23 -174 197 -197 197 -10 0 -272 -254 -605 -588z
m637 328 l-65 -65 -47 48 -48 47 65 65 64 65 48 -47 48 -48 -65 -65z m-577
-577 l-453 -453 -47 47 -48 48 452 452 453 453 47 -47 48 -48 -452 -452z"/>
      <path d="M1244 563 c-6 -5 -24 -31 -39 -60 -23 -41 -40 -56 -78 -74 -85 -40
-85 -73 0 -121 42 -23 59 -41 78 -79 43 -84 75 -84 122 2 20 38 39 57 73 74
89 45 91 75 10 120 -43 24 -61 42 -85 85 -30 53 -56 70 -81 53z m71 -210 c-12
-6 -27 -24 -34 -40 l-13 -28 -14 27 c-8 15 -27 34 -42 42 l-27 14 26 12 c15 7
32 23 38 36 l11 24 38 -37 c37 -37 38 -38 17 -50z"/>
    </g>
  </g>
  
  <!-- SDK Badge at bottom -->
  <g transform="translate(0, 200)">
    <rect x="16" y="0" width="160" height="36" rx="8" class="sdk-badge"/>
    <text x="96" y="24" text-anchor="middle" font-size="20" class="sdk-text">SDK</text>
  </g>
</svg>
